# xmcd
#
# Track frame offsets: 
#        225
#        17117
#        51595
#        68360
#        94060
#        122278
#        140611
#        162694
#        177587
#        193294
#
# Disc length: 2691 seconds
#
# Revision: 1
# Processed by: cddbd v1.5.2PL0 Copyright (c) Steve Scherf et al.
# Submitted via: ExactAudioCopy v0.95b4
#
DISCID=920a800a
DTITLE=Wiggins, "Detroit" Gary - I Got Up
DYEAR=1996
DGENRE=Jazz
TTITLE0=Junk funk
TTITLE1=Ain't no sunshine
TTITLE2=Get up
TTITLE3=Yes yes yes (to my Lord)
TTITLE4=Ain't gonna say no
TTITLE5=We just keep on groovin'
TTITLE6=Something real
TTITLE7=Reach out
TTITLE8=I got up
TTITLE9=Lift every voice
EXTD=YEAR: 1996
EXTT0=
EXTT1=
EXTT2=
EXTT3=
EXTT4=
EXTT5=
EXTT6=
EXTT7=
EXTT8=
EXTT9=
PLAYORDER=
